<?xml version="1.0" encoding="utf-8"?>
<!-- Generator: Adobe Illustrator 24.1.2, SVG Export Plug-In . SVG Version: 6.00 Build 0)  -->
<svg version="1.1" id="Слой_1" xmlns="http://www.w3.org/2000/svg" xmlns:xlink="http://www.w3.org/1999/xlink" x="0px" y="0px"
	 viewBox="0 0 370 350" style="enable-background:new 0 0 370 350;" xml:space="preserve">
<style type="text/css">
	.st0{fill:#FFFFFF;}
</style>
<g>
	<g>
		<path d="M77.85,201.38c14.36,4.35,31.59,10.85,50.12,20.74c20.18,10.77,36.24,22.57,48.39,32.84c0,20.17,0,40.32,0,60.49H89.95
			c-6.48-15.17-14.17-38.37-15.55-67.4C73.53,229.67,75.4,213.79,77.85,201.38z"/>
		<path d="M83.04,187.55c15.26,4.22,34.51,11.06,55.3,22.47c19.74,10.84,35.2,22.69,46.66,32.84c0-14.98,0-29.95,0-44.93
			c-5.94,0.09-14.33-0.16-24.19-1.73c-6.15-0.99-14.46-2.73-31.11-8.64c-10.8-3.84-25.02-9.38-41.48-17.28
			C86.49,176.03,84.77,181.8,83.04,187.55z"/>
		<path d="M185,182.37c-11.98-0.4-27.48-2.04-44.93-6.91c-18.94-5.29-34.04-12.65-44.93-19.01c10.14-16.3,15.78-31.02,19.01-41.48
			c4.32-13.98,8.69-28.12,6.91-46.66c-1.49-15.36-6.57-27.29-10.37-34.56c24.76,0,49.55,0,74.31,0"/>
		<path d="M3.18,75.85C1.94,75.28,1.05,74.08,1,72.72c-0.03-0.97,0.24-1.92,0.81-2.68c0.62-0.83,1.43-1.26,2.13-1.49
			c0.71-0.22,1.47-0.19,2.18,0.03c9.68,3.15,20.98,6.15,33.72,8.36c8.83,1.54,17.14,2.49,24.76,3.02c3.2,0.22,5.18-3.42,3.25-5.98
			c-1.45-1.92-2.89-3.85-4.34-5.77c-0.99-1.31-1.02-3.15-0.03-4.48c0.16-0.21,0.33-0.41,0.54-0.62c0,0,0,0,0.02-0.02
			c1.43-1.43,3.78-1.38,5.22,0.05c6.05,6.05,12.1,12.1,18.15,18.15c1.42,1.42,1.47,3.72,0.1,5.2l-18.23,19.63
			c-1.38,1.49-3.75,1.66-5.2,0.22c-0.02-0.02-0.03-0.03-0.03-0.03c-0.19-0.19-0.55-0.59-0.92-1.19c-0.69-1.14-0.62-2.59,0.07-3.73
			c1.87-3.09,3.72-6.2,5.58-9.3c1.57-2.63,0.05-5.05-3.01-4.79c-7.95,0.69-18.3-0.1-29.38-1.73C22.43,83.54,11.18,79.48,3.18,75.85z
			"/>
	</g>
	<g>
		<path d="M292.15,201.38c-14.36,4.35-31.59,10.85-50.12,20.74c-20.18,10.77-36.24,22.57-48.39,32.84c0,20.17,0,40.32,0,60.49h86.41
			c6.48-15.17,14.17-38.37,15.55-67.4C296.47,229.67,294.6,213.79,292.15,201.38z"/>
		<path d="M286.96,187.55c-15.26,4.22-34.51,11.06-55.3,22.47c-19.74,10.84-35.2,22.69-46.66,32.84c0-14.98,0-29.95,0-44.93
			c5.94,0.09,14.33-0.16,24.19-1.73c6.15-0.99,14.46-2.73,31.11-8.64c10.8-3.84,25.02-9.38,41.48-17.28
			C283.51,176.03,285.23,181.8,286.96,187.55z"/>
		<path d="M185,182.37c11.98-0.4,27.48-2.04,44.93-6.91c18.94-5.29,34.04-12.65,44.93-19.01c-10.14-16.3-15.78-31.02-19.01-41.48
			c-4.32-13.98-8.69-28.12-6.91-46.66c1.49-15.36,6.57-27.29,10.37-34.56c-24.76,0-49.55,0-74.31,0"/>
		<path d="M366.82,75.85c1.24-0.57,2.13-1.76,2.18-3.13c0.03-0.97-0.24-1.92-0.81-2.68c-0.62-0.83-1.43-1.26-2.13-1.49
			c-0.71-0.22-1.47-0.19-2.18,0.03c-9.68,3.15-20.98,6.15-33.72,8.36c-8.83,1.54-17.14,2.49-24.76,3.02
			c-3.2,0.22-5.18-3.42-3.25-5.98c1.45-1.92,2.89-3.85,4.34-5.77c0.99-1.31,1.02-3.15,0.03-4.48c-0.16-0.21-0.33-0.41-0.54-0.62
			c0,0,0,0-0.02-0.02c-1.43-1.43-3.78-1.38-5.22,0.05c-6.05,6.05-12.1,12.1-18.15,18.15c-1.42,1.42-1.47,3.72-0.1,5.2l18.23,19.63
			c1.38,1.49,3.75,1.66,5.2,0.22c0.02-0.02,0.03-0.03,0.03-0.03c0.19-0.19,0.55-0.59,0.92-1.19c0.69-1.14,0.62-2.59-0.07-3.73
			c-1.87-3.09-3.72-6.2-5.58-9.3c-1.57-2.63-0.05-5.05,3.01-4.79c7.95,0.69,18.3-0.1,29.38-1.73
			C347.57,83.54,358.82,79.48,366.82,75.85z"/>
	</g>
	<ellipse class="st0" cx="184.14" cy="132.25" rx="11.23" ry="8.64"/>
</g>
</svg>
