<?xml version="1.0" encoding="utf-8"?>
<!-- Generator: Adobe Illustrator 24.1.2, SVG Export Plug-In . SVG Version: 6.00 Build 0)  -->
<svg version="1.1" id="Слой_1" xmlns="http://www.w3.org/2000/svg" xmlns:xlink="http://www.w3.org/1999/xlink" x="0px" y="0px"
	 viewBox="0 0 315 40" style="enable-background:new 0 0 315 40;" xml:space="preserve">
<path d="M105.19,9.64v23.52h-4.95V9.64h-8.85V5.28h23.1v4.36H105.19z"/>
<path d="M117.13,18.97c0-3.96,1.09-7.32,3.27-10.07s5.09-4.13,8.75-4.13c3.97,0,7.03,1.23,9.16,3.7c2.13,2.47,3.2,5.97,3.2,10.5
	c0,4.55-1.11,8.13-3.33,10.74c-2.22,2.62-5.36,3.92-9.43,3.92c-3.78,0-6.67-1.32-8.65-3.95C118.12,27.05,117.13,23.48,117.13,18.97z
	 M122.27,18.97c0,3.39,0.56,5.94,1.68,7.66c1.12,1.72,2.72,2.58,4.8,2.58c2.48,0,4.36-0.86,5.67-2.59s1.95-4.28,1.95-7.66
	c0-6.54-2.41-9.81-7.22-9.81c-2.23,0-3.94,0.88-5.11,2.65C122.86,13.58,122.27,15.97,122.27,18.97z"/>
<path d="M161.94,33.16V20.61h-11.1v12.55h-4.95c1.22-2.61,3.16-7.61,3.11-14.16c-0.04-6.31-1.9-11.14-3.11-13.72
	c1.65,0,3.3,0,4.95,0v10.91h11.1V5.28h4.88c-1.16,2.74-2.63,7.14-2.82,12.72c-0.23,6.86,1.57,12.21,2.82,15.16
	C165.19,33.16,163.57,33.16,161.94,33.16z"/>
<path d="M182.81,21.51c2.26-4.6,4.18-10,5.77-16.22h5.12c-1.57,5.69-3.55,10.92-5.93,15.69c-2.38,4.77-4.67,8.04-6.86,9.81
	c-2.19,1.77-5.08,2.65-8.67,2.65v-4.55c0.15,0.03,0.45,0.04,0.89,0.04c1.63,0,2.96-0.29,4.02-0.88c1.05-0.58,1.99-1.47,2.82-2.65"/>
<path d="M215.89,6.77l-2.02,4.09c-1.12-1.13-2.89-1.69-5.31-1.69c-2.44,0-4.37,1.01-5.81,3.03s-2.15,4.46-2.15,7.31
	c0,2.86,0.67,5.19,2,7c1.33,1.81,3.19,2.71,5.58,2.71c2.63,0,4.68-0.93,6.15-2.8l2.34,4.02c-2.03,2.13-5,3.2-8.89,3.2
	c-3.92,0-6.96-1.29-9.1-3.86c-2.15-2.57-3.22-6.06-3.22-10.46c0-4.09,1.18-7.53,3.55-10.34c2.37-2.81,5.45-4.21,9.25-4.21
	C211.4,4.77,213.95,5.43,215.89,6.77z"/>
<path d="M134.09,28.13c-0.28,0.13-0.48,0.4-0.49,0.71c-0.01,0.22,0.05,0.43,0.18,0.61c0.14,0.19,0.32,0.29,0.48,0.34
	c0.21,0.07,0.39,0.02,0.49-0.01c1.41-0.35,2.02-0.77,2.02-0.77c1.44-1,2.8-3.6,3-4c1.69-3.29,2.03-4.95,3-5
	c0.42-0.02,0.92,0.27,0.95,0.55c0.05,0.36-0.45,0.61-0.98,1.31c-0.22,0.3-0.23,0.71-0.01,1.01c0.04,0.05,0.07,0.09,0.12,0.14
	c0,0,0,0,0,0c0.32,0.32,0.86,0.31,1.18-0.01c1.37-1.37,2.74-2.74,4.11-4.11c0.32-0.32,0.33-0.84,0.02-1.18l-4.13-4.44
	c-0.31-0.34-0.85-0.38-1.18-0.05c0,0-0.01,0.01-0.01,0.01c-0.04,0.04-0.12,0.13-0.21,0.27c-0.16,0.26-0.14,0.59,0.02,0.84
	c0.42,0.7,0.84,1.4,1.26,2.11c0.18,0.3,0.18,0.58,0.05,0.78c-0.16,0.26-0.56,0.29-0.74,0.3c0,0-1.18,0.09-2.48,0.47
	c-1.28,0.37-0.65,2.43-2.17,4.93C137.56,24.66,135.05,27.68,134.09,28.13z"/>
<path d="M180.77,17c-0.81-2.34-3.07-5.17-5-5c-2.52,0.22-4.57,5.6-6.03,5.53c-0.14-0.01-0.56-0.02-0.74-0.3
	c-0.13-0.2-0.12-0.49,0.05-0.78c0.42-0.7,0.84-1.41,1.26-2.11c0.16-0.26,0.17-0.59,0.02-0.84c-0.08-0.14-0.17-0.23-0.21-0.27
	c0,0,0,0-0.01-0.01c-0.33-0.33-0.86-0.29-1.18,0.05l-4.13,4.44c-0.31,0.34-0.3,0.86,0.02,1.18c1.37,1.37,2.74,2.74,4.11,4.11
	c0.33,0.32,0.86,0.34,1.18,0.01c0,0,0,0,0,0c0.05-0.05,0.09-0.09,0.12-0.14c0.22-0.3,0.22-0.72-0.01-1.01
	c-0.53-0.7-1.03-0.95-0.98-1.31c0.05-0.35,0.83-0.52,0.95-0.55c2.57-0.58,4.16-4.27,5.55-4c2.13,0.42,2.16,9.88,4,10
	c0.43,0.03,1.82-0.39,2.47-0.23c0.06,0.01,0.26,0.08,0.49,0.01c0.16-0.05,0.34-0.15,0.48-0.34c0.13-0.17,0.19-0.39,0.18-0.61
	c-0.01-0.4-0.42-0.65-0.49-0.71C181.98,23.43,181.49,19.07,180.77,17z"/>
</svg>
