<?xml version="1.0" encoding="utf-8"?>
<!-- Generator: Adobe Illustrator 24.1.2, SVG Export Plug-In . SVG Version: 6.00 Build 0)  -->
<svg version="1.1" id="Слой_1" xmlns="http://www.w3.org/2000/svg" xmlns:xlink="http://www.w3.org/1999/xlink" x="0px" y="0px"
	 viewBox="0 0 315 50" style="enable-background:new 0 0 315 50;" xml:space="preserve">
<g>
	<path d="M71.2,8.4v41.2h-8.6V8.4H47.1V0.7h40.5v7.7H71.2z"/>
	<path d="M92.2,24.8c0-7,1.9-12.9,5.8-17.7c3.9-4.8,8.9-7.2,15.3-7.2c7,0,12.4,2.2,16.1,6.4s5.7,10.4,5.7,18.4s-1.9,14.3-5.8,18.8
		c-3.9,4.6-9.4,6.8-16.5,6.8c-6.6,0-11.7-2.3-15.2-7C93.9,39,92.2,32.7,92.2,24.8z M101.2,24.8c0,5.9,1,10.4,3,13.4
		c1.9,3,4.8,4.5,8.4,4.5c4.4,0,7.6-1.5,9.9-4.5c2.3-3.1,3.5-7.5,3.5-13.4c0-11.5-4.3-17.3-12.6-17.3c-3.9,0-7,1.5-9,4.6
		S101.2,19.5,101.2,24.8z"/>
	<path d="M170.8,49.7v-22h-19.5v22h-8.6c2.2-4.6,5.5-13.4,5.4-24.9c-0.1-11.1-3.4-19.6-5.4-24.1c2.8,0,5.8,0,8.6,0v19.1h19.5V0.7
		h8.5c-2.1,4.8-4.6,12.5-4.9,22.3c-0.4,12,2.7,21.4,4.9,26.6C176.5,49.7,173.7,49.7,170.8,49.7z"/>
	<path d="M207.4,29.2c4-8.1,7.3-17.5,10.2-28.5h9c-2.7,9.9-6.2,19.2-10.4,27.6c-4.1,8.4-8.2,14-12,17.3c-3.9,3.1-8.9,4.6-15.2,4.6
		v-8c0.3,0,0.8,0.1,1.5,0.1c2.8,0,5.2-0.5,7.1-1.5c1.8-1,3.5-2.6,4.9-4.6"/>
	<path d="M265.5,3.4l-3.5,7.2c-1.9-1.9-5-3-9.3-3s-7.6,1.8-10.2,5.3s-3.7,7.9-3.7,12.8c0,5,1.2,9.2,3.5,12.2s5.5,4.8,9.8,4.8
		c4.6,0,8.2-1.7,10.8-4.9l4.1,7.1c-3.6,3.7-8.8,5.7-15.6,5.7c-6.8,0-12.2-2.3-16-6.8s-5.7-10.6-5.7-18.3c0-7.2,2.1-13.1,6.2-18.2
		c4.1-4.9,9.5-7.3,16.2-7.3C257.6-0.1,262.1,1.1,265.5,3.4z"/>
	<path d="M122,40.8c-0.5,0.3-0.9,0.6-0.9,1.3c0,0.4,0.1,0.8,0.3,1c0.3,0.4,0.5,0.5,0.9,0.6c0.4,0.1,0.6,0,0.9,0
		c2.4-0.6,3.5-1.3,3.5-1.3c2.6-1.8,4.9-6.3,5.3-7c3-5.8,3.6-8.6,5.3-8.8c0.8,0,1.7,0.5,1.7,0.9c0.1,0.6-0.8,1-1.7,2.3
		c-0.4,0.5-0.4,1.3,0,1.8c0.1,0.1,0.1,0.1,0.3,0.3l0,0c0.5,0.5,1.5,0.5,2.1,0c2.4-2.4,4.8-4.8,7.2-7.2c0.5-0.5,0.5-1.4,0-2.1
		l-7.2-7.7c-0.5-0.6-1.5-0.6-2.1-0.1l0,0c-0.1,0.1-0.3,0.3-0.4,0.5c-0.3,0.5-0.3,1,0,1.4c0.8,1.3,1.4,2.4,2.2,3.7
		c0.3,0.5,0.3,1,0.1,1.4c-0.3,0.5-1,0.5-1.3,0.5c0,0-2.1,0.1-4.4,0.8c-2.2,0.6-1.2,4.3-3.9,8.6C128,34.7,123.7,40,122,40.8z"/>
	<path d="M203.8,21.3c-1.4-4.1-5.4-9-8.8-8.8c-4.4,0.4-8,9.8-10.6,9.7c-0.3,0-1,0-1.3-0.5c-0.3-0.4-0.3-0.9,0.1-1.4
		c0.8-1.3,1.4-2.4,2.2-3.7c0.3-0.5,0.3-1,0-1.4c-0.1-0.3-0.3-0.4-0.4-0.5l0,0c-0.5-0.5-1.5-0.5-2.1,0.1l-7.2,7.7
		c-0.5,0.6-0.5,1.5,0,2.1c2.4,2.4,4.8,4.8,7.2,7.2c0.5,0.5,1.5,0.6,2.1,0l0,0c0.1-0.1,0.1-0.1,0.3-0.3c0.4-0.5,0.4-1.3,0-1.8
		c-0.9-1.3-1.8-1.7-1.7-2.3c0.1-0.6,1.4-0.9,1.7-0.9c4.5-1,7.3-7.5,9.8-7c3.7,0.8,3.7,17.3,7,17.5c0.8,0,3.2-0.6,4.4-0.4
		c0.1,0,0.5,0.1,0.9,0c0.3-0.1,0.6-0.3,0.9-0.6c0.3-0.3,0.4-0.6,0.3-1c0-0.6-0.8-1.2-0.9-1.3C205.9,32.7,205.1,24.9,203.8,21.3z"/>
</g>
</svg>
